<?xml version="1.0" encoding="UTF-8" standalone="no"?>
<!DOCTYPE svg PUBLIC "-//W3C//DTD SVG 1.1//EN" "http://www.w3.org/Graphics/SVG/1.1/DTD/svg11.dtd">
<svg width="100%" height="100%" viewBox="0 0 1626 1765" version="1.1" xmlns="http://www.w3.org/2000/svg" xmlns:xlink="http://www.w3.org/1999/xlink" xml:space="preserve" xmlns:serif="http://www.serif.com/" style="fill-rule:evenodd;clip-rule:evenodd;stroke-linejoin:round;stroke-miterlimit:2;">
    <g transform="matrix(1,0,0,1,-412.569,-650.639)">
        <g transform="matrix(4.16667,0,0,4.16667,0,0)">
            <g transform="matrix(0.999991,0.00412417,-0.00412417,0.999991,1.51934,-1.21124)">
                <g>
                    <g transform="matrix(0.24,0,0,0.24,0,0)">
                        <path d="M1490.34,2214.62C1488.49,2211.97 1486.68,2209.29 1484.88,2206.6C1468.76,2182.41 1454.93,2154.99 1443.47,2124.22C1432.04,2093.43 1422.27,2059.01 1414.61,2021.05C1406.97,1983.04 1401.85,1940.32 1399.73,1892.59C1397.38,1855.82 1398.9,1818.45 1404.2,1780.89C1409.73,1743.3 1418.44,1707.45 1430.74,1673.26C1443.04,1639.07 1458.58,1607.24 1477.46,1577.7C1496.12,1547.98 1518.02,1522.91 1543.08,1502.12C1567.91,1481.53 1595.7,1466.23 1626.48,1456.65C1657.3,1447.11 1690.62,1445 1726.69,1450.3L1681.73,1110.57C1681.08,1105.92 1682.33,1103.56 1685.74,1103.56C1689.32,1103.56 1693.38,1104.62 1697.85,1106.56C1702.5,1108.44 1706.97,1110.8 1711.22,1113.33C1715.26,1116.1 1718.64,1117.8 1720.98,1118.68C1755.4,1142.45 1789.78,1175.12 1823.96,1216.54C1858.16,1257.92 1889.17,1304.88 1917.18,1357.07C1945.2,1409.33 1969.38,1465.18 1989.8,1524.62C2010.15,1584.06 2023.76,1643.96 2030.53,1703.81C2042.23,1796.61 2042.23,1879.17 2031.17,1951.38C2020.16,2023.58 2001.45,2085.55 1975.32,2137.39C1949.24,2189.18 1917.82,2231.21 1880.87,2263.09C1844.14,2294.93 1805.49,2316.58 1765.17,2328.06C1725.04,2339.54 1685.09,2340.78 1645.42,2331.42C1605.98,2322.32 1570.54,2303.27 1539.14,2274.03C1529.56,2294.25 1516.84,2313.02 1500.83,2330.36C1478.52,2352.67 1453.46,2370.08 1425.44,2382.38C1397.38,2394.51 1368.95,2403.21 1340.07,2408.33C1311.4,2413.17 1283.39,2415.33 1256.21,2414.69C1228.83,2413.8 1204.83,2411.5 1184.23,2407.68C1179.57,2405.33 1178.06,2403.45 1179.57,2401.93C1181.05,2400.45 1182.52,2399.15 1184.23,2398.55C1204.18,2392.38 1223.72,2385.57 1242.85,2378.38C1262.14,2370.96 1281.91,2362.66 1302.05,2353.54C1322.47,2344.42 1343.47,2333.13 1364.89,2320.18C1386.38,2307.01 1409.08,2291.75 1432.86,2274.11C1441.34,2267.1 1451.52,2258.21 1463.46,2246.92C1472.14,2238.88 1481.04,2228.11 1490.34,2214.62ZM1921.19,1729.49C1921.01,1792.52 1909.58,1843.17 1887,1881.3C1864.51,1919.78 1828.84,1944.14 1780.65,1954.97C1739.87,1964.14 1707.39,1977.09 1683.2,1993.63C1659.01,2009.99 1639.65,2028.89 1625.24,2049.89C1610.58,2071.14 1599.34,2093.85 1591.69,2118.04C1584.04,2142.04 1576.63,2166.7 1569.38,2191.71C1568.58,2194.42 1567.76,2197.12 1566.92,2199.8C1579.33,2209.49 1591.34,2216.53 1602.93,2221.03C1620.99,2227.84 1634.59,2232.91 1643.71,2235.9C1679.14,2243.56 1713.33,2242.68 1746.23,2233.14C1779.17,2223.37 1809.96,2207.25 1838.39,2184.72C1866.86,2162 1891.88,2133.57 1913.77,2099.38C1935.65,2065.19 1953.49,2027.41 1967.27,1985.99C1981.09,1944.61 1990.44,1900.23 1995.51,1852.87C2000.39,1805.74 1999.56,1757.95 1992.56,1709.57C1984.91,1653.49 1970.26,1599.99 1948.37,1548.8C1926.54,1497.65 1902.71,1452.64 1877.45,1413.58C1852.21,1374.31 1827.79,1342.88 1804.43,1319.07C1781.07,1295.29 1763.46,1282.57 1751.99,1281.1L1765.77,1463.06C1789.54,1474.54 1811.02,1489.6 1829.68,1508.48C1848.57,1527.38 1864.74,1548.62 1878.1,1572.39C1891.47,1596.17 1901.65,1621.65 1908.7,1648.38C1915.47,1675.38 1919.72,1701.92 1921.19,1728L1921.19,1729.49ZM1878.44,1727.44C1875.2,1703.7 1866.75,1682 1852.21,1662.2C1837.56,1642.25 1820.14,1625.47 1799.78,1611.66C1779.36,1597.88 1757.29,1587.47 1733.51,1580.46C1709.74,1573.64 1686.79,1571.76 1664.49,1574.75C1621.4,1580.05 1584.87,1595.76 1554.51,1621.43C1524.14,1647.13 1500.18,1678.33 1482.53,1715.29C1464.93,1752.23 1453.04,1791.72 1446.88,1833.97C1440.69,1876.23 1440.28,1916.78 1445.81,1956.04C1455.8,2015.93 1469.82,2063.48 1488.29,2098.96C1499.89,2121.08 1511.72,2140.1 1523.86,2156.03C1529.81,2143.81 1535.93,2130.38 1542.21,2115.74C1556.86,2081.54 1571.1,2037.59 1584.87,1983.68C1593.99,1950.74 1607.4,1925.07 1625.24,1906.59C1642.84,1888.12 1662.61,1873.88 1684.44,1863.92C1706.33,1853.93 1728.86,1846.28 1751.76,1840.98C1774.89,1835.45 1795.72,1829.09 1814.61,1821.45C1833.31,1813.61 1848.57,1802.96 1860.46,1789.19C1872.57,1775.36 1878.52,1755 1878.52,1728L1878.44,1727.44Z" style="fill:rgb(255,97,6);fill-rule:nonzero;"/>
                    </g>
                    <g transform="matrix(2.83097,0,0,2.83097,-555.41,-160.697)">
                        <path d="M308.125,213.574C308.32,219.965 307.676,225.777 306.18,231.051C304.668,236.324 302.039,240.879 298.262,244.676C294.496,248.492 289.402,251.52 282.996,253.77C276.59,256 268.598,257.297 259.019,257.621C258.371,257.621 257.992,257.477 257.902,257.187C257.812,256.883 258.047,256.648 258.64,256.449C261.379,255.801 264.348,254.828 267.57,253.57C270.793,252.293 274.031,250.742 277.273,248.926C280.531,247.109 283.68,244.965 286.703,242.535C289.727,240.086 292.465,237.406 294.895,234.473C297.344,231.539 299.359,228.332 300.941,224.859C302.543,221.367 303.535,217.641 303.93,213.684C303.984,213.086 303.68,212.332 302.992,211.434C302.309,210.516 301.48,209.578 300.512,208.605C299.539,207.617 298.531,206.66 297.484,205.707C296.441,204.773 295.523,204.016 294.75,203.422C294.227,201.531 294.031,199.625 294.176,197.715C294.301,195.789 294.625,193.918 295.145,192.102C299.773,194.836 303.086,198.059 305.102,201.766C307.117,205.473 308.125,209.414 308.125,213.574Z" style="fill:rgb(255,97,6);fill-rule:nonzero;"/>
                    </g>
                    <g transform="matrix(2.83097,0,0,2.83097,-555.41,-160.697)">
                        <path d="M317.375,128.738C318.547,132.773 319.48,136.461 320.164,139.828C320.852,143.176 321.316,146.324 321.57,149.297C321.84,152.246 321.93,155.09 321.875,157.793C321.805,160.492 321.641,163.211 321.391,165.945C321.391,166.199 321.246,166.379 320.992,166.484C320.742,166.574 320.617,166.469 320.617,166.145C320.617,161.77 320.113,157.359 319.086,152.914C318.078,148.449 316.961,144.293 315.719,140.457C314.496,136.605 313.344,133.258 312.266,130.395C311.184,127.535 310.59,125.52 310.465,124.348C310.465,124.078 310.41,123.539 310.301,122.727C310.211,121.918 310.121,120.945 310.016,119.793C309.926,118.66 309.871,117.453 309.871,116.195C309.871,114.914 309.961,113.672 310.156,112.434C310.23,112.109 310.285,111.926 310.355,111.891C310.43,111.855 310.625,111.91 310.949,112.035C316.277,114.773 320.453,117.922 323.496,121.504C326.52,125.086 328.789,128.687 330.316,132.305C331.848,135.922 332.84,139.34 333.254,142.602C333.684,145.859 333.898,148.559 333.898,150.699C333.953,155 333.379,159.176 332.172,163.211C330.984,167.242 329.258,170.84 327.008,174.008C324.758,177.16 322.02,179.68 318.797,181.57C315.574,183.461 311.941,184.414 307.906,184.414C303.48,184.414 299.609,183.422 296.297,181.48C292.969,179.52 290.25,176.961 288.09,173.812C285.949,170.645 284.363,167.062 283.355,163.066C282.348,159.051 281.953,154.984 282.148,150.863C282.328,146.723 283.141,142.707 284.527,138.801C285.93,134.895 287.93,131.441 290.539,128.434C291.059,127.859 291.457,127.535 291.707,127.461C291.961,127.406 292.105,127.516 292.105,127.805C292.105,128.109 291.996,128.488 291.797,128.973C291.617,129.477 291.348,129.945 291.023,130.395C289.078,133.004 287.621,135.867 286.688,138.98C285.73,142.113 285.266,145.281 285.266,148.469C285.266,151.652 285.73,154.75 286.688,157.738C287.621,160.742 289.027,163.406 290.879,165.746C292.734,168.086 295.004,169.961 297.664,171.363C300.328,172.77 303.391,173.469 306.848,173.469C308.789,173.469 311.129,172.965 313.867,171.992C316.602,171.023 319.195,169.562 321.625,167.602C324.07,165.656 326.141,163.246 327.836,160.383C329.527,157.504 330.336,154.227 330.281,150.52C330.281,148.434 329.957,146.309 329.293,144.164C328.645,142.023 327.742,139.973 326.609,138.008C325.477,136.066 324.109,134.266 322.508,132.645C320.902,131.008 319.195,129.711 317.375,128.738Z" style="fill:rgb(255,97,6);fill-rule:nonzero;"/>
                    </g>
                    <g transform="matrix(2.83097,0,0,2.83097,-555.41,-160.697)">
                        <path d="M280.566,212.855C279.758,212.312 279.02,212.027 278.336,211.953C277.633,211.883 276.965,211.898 276.301,211.988C275.633,212.098 274.934,212.168 274.176,212.223C273.438,212.277 272.664,212.133 271.871,211.793C270.793,211.539 269.965,211 269.352,210.207C268.738,209.434 268.309,208.57 268.02,207.668C267.75,206.77 267.625,205.832 267.66,204.914C267.695,203.98 267.77,203.223 267.91,202.664C268.254,201.332 268.738,199.949 269.406,198.508C270.07,197.051 270.863,195.754 271.801,194.566C272.719,193.395 273.797,192.477 274.984,191.848C276.191,191.199 277.488,191.055 278.875,191.398C281.16,191.902 282.941,192.91 284.203,194.441C285.461,195.969 286.344,197.75 286.828,199.82C287.336,201.891 287.426,204.176 287.152,206.645C286.867,209.129 286.309,211.613 285.496,214.078C285.031,215.645 284.219,217.625 283.066,220.02C281.898,222.41 280.422,224.914 278.621,227.523C276.84,230.133 274.789,232.691 272.484,235.191C270.18,237.711 267.641,239.871 264.871,241.707C262.117,243.527 259.164,244.84 256.051,245.633C252.938,246.441 249.66,246.406 246.258,245.559C241.973,244.156 238.754,242.141 236.594,239.531C234.434,236.902 232.957,234.059 232.184,230.98C231.406,227.902 231.156,224.805 231.426,221.691C231.715,218.559 232.145,215.805 232.738,213.41C233.84,209.254 235.676,204.988 238.246,200.594C240.82,196.203 243.719,191.828 246.906,187.457C250.109,183.082 253.441,178.832 256.879,174.695C260.336,170.555 263.484,166.629 266.363,162.902C267.047,162.004 267.84,160.781 268.738,159.23C269.621,157.664 270.324,156.102 270.828,154.516C271.313,152.934 271.422,151.492 271.133,150.215C270.848,148.937 269.855,148.09 268.145,147.656C267.266,147.441 266.488,147.387 265.824,147.531C265.156,147.656 264.473,147.891 263.789,148.18C263.125,148.484 262.441,148.809 261.738,149.187C261.035,149.547 260.297,149.855 259.488,150.125C258.965,150.34 258.515,150.25 258.137,149.891C257.762,149.531 257.687,148.973 257.941,148.234C258.445,146.543 259.234,144.957 260.351,143.445C261.469,141.953 262.766,140.637 264.238,139.539C265.734,138.422 267.301,137.633 268.957,137.145C270.629,136.66 272.32,136.625 274.016,137.039C275.398,137.398 276.445,138.008 277.129,138.926C277.793,139.828 278.242,140.891 278.441,142.078C278.656,143.266 278.656,144.527 278.461,145.859C278.262,147.172 278.012,148.449 277.723,149.637C276.535,154.371 274.57,158.891 271.836,163.172C269.082,167.457 266.023,171.633 262.656,175.738C259.289,179.824 255.852,183.875 252.344,187.906C248.813,191.918 245.684,196.078 242.945,200.363C242.426,201.102 241.902,202.02 241.398,203.098C240.895,204.176 240.426,205.277 239.977,206.41C239.527,207.543 239.113,208.625 238.754,209.687C238.391,210.73 238.141,211.574 237.977,212.207C237.402,214.547 237.313,216.867 237.742,219.191C238.176,221.512 239.004,223.652 240.227,225.598C241.453,227.543 242.965,229.234 244.801,230.656C246.617,232.094 248.672,233.086 250.938,233.645C254.18,234.328 257.437,234.148 260.676,233.105C263.914,232.078 266.887,230.512 269.586,228.441C272.285,226.355 274.609,223.941 276.57,221.168C278.551,218.414 279.863,215.645 280.566,212.855Z" style="fill:rgb(255,97,6);fill-rule:nonzero;"/>
                    </g>
                    <g transform="matrix(2.83097,0,0,2.83097,-555.41,-160.697)">
                        <path d="M266.184,185.801C266.293,184.918 266.438,183.875 266.672,182.648C266.887,181.426 267.012,180.254 267.066,179.141C267.406,179.086 268.145,178.922 269.297,178.672C270.449,178.402 271.676,178.113 272.953,177.824C274.246,177.52 275.453,177.23 276.59,176.945C277.703,176.656 278.441,176.457 278.785,176.352C279.07,176.258 279.289,176.312 279.434,176.492C279.574,176.691 279.703,176.961 279.809,177.305C279.898,177.645 279.953,178.004 279.988,178.367C280.008,178.742 280.027,179.016 280.027,179.211C280.027,180.328 279.918,181.426 279.703,182.504C279.469,183.586 279.125,184.414 278.641,184.988C278.297,185.387 277.703,185.766 276.875,186.125C276.047,186.5 275.113,186.809 274.086,187.078C273.078,187.348 271.98,187.582 270.828,187.781C269.695,187.977 268.598,188.105 267.57,188.141C266.992,188.195 266.563,188.195 266.293,188.141C266.023,188.105 265.879,187.996 265.859,187.816C265.844,187.652 265.859,187.402 265.934,187.078C266.004,186.773 266.094,186.34 266.184,185.801Z" style="fill:rgb(103,205,13);fill-rule:nonzero;"/>
                    </g>
                    <g transform="matrix(2.83097,0,0,2.83097,-555.41,-160.697)">
                        <path d="M285.391,190.047C285.281,190.047 285.316,189.652 285.461,188.879C285.605,188.105 285.785,187.223 286.004,186.27C286.219,185.332 286.469,184.449 286.738,183.676C287.012,182.902 287.242,182.504 287.426,182.504C287.621,182.504 288.09,182.594 288.828,182.758C289.547,182.937 290.305,183.172 291.098,183.461C291.871,183.746 292.57,184.07 293.184,184.449C293.797,184.809 294.102,185.187 294.102,185.582C294.102,186.016 294.012,186.645 293.832,187.457C293.672,188.246 293.453,189.039 293.184,189.832C292.914,190.605 292.625,191.273 292.34,191.848C292.051,192.406 291.797,192.641 291.602,192.531C290.773,192.191 289.781,191.777 288.613,191.254C287.441,190.75 286.363,190.336 285.391,190.047Z" style="fill:rgb(103,205,13);fill-rule:nonzero;"/>
                    </g>
                    <g transform="matrix(2.83097,0,0,2.83097,-555.41,-160.697)">
                        <path d="M335.32,213.734C334.242,214.059 333.434,213.988 332.91,213.5C332.387,213.016 332.012,212.402 331.813,211.648C331.613,210.91 331.523,210.137 331.543,209.363C331.559,208.586 331.578,208.082 331.578,207.867C331.668,207.094 331.777,206.625 331.922,206.465C332.047,206.301 332.117,206.445 332.117,206.895L332.117,207.797C332.117,208.246 332.191,208.715 332.352,209.164C332.516,209.613 332.785,209.937 333.18,210.152C333.559,210.352 334.172,210.262 334.98,209.848C335.395,209.668 335.699,209.414 335.914,209.09C336.113,208.77 336.258,208.406 336.328,207.992C336.383,207.578 336.422,207.148 336.383,206.66C336.367,206.195 336.383,205.691 336.422,205.187C336.422,204.645 336.457,204.27 336.527,204.035C336.602,203.801 336.672,203.672 336.727,203.621C336.797,203.582 336.852,203.602 336.906,203.691C336.941,203.781 336.977,203.855 336.977,203.891C337.066,204.27 337.141,204.754 337.211,205.367C337.285,205.977 337.59,206.426 338.129,206.699C338.273,206.789 338.652,206.734 339.266,206.535C339.875,206.32 340.289,206.016 340.523,205.602C340.848,205.059 340.992,204.449 340.992,203.766C340.992,203.078 340.957,202.324 340.867,201.496C340.777,201.008 340.902,200.937 341.281,201.297C341.641,201.836 341.891,202.574 342.055,203.492C342.215,204.395 342.254,205.383 342.16,206.426C341.891,208.121 341.336,209.254 340.523,209.848C339.695,210.441 338.977,210.621 338.328,210.387C338.113,210.352 337.895,210.461 337.715,210.73C337.535,211 337.34,211.34 337.141,211.754C336.941,212.168 336.691,212.566 336.422,212.961C336.148,213.34 335.789,213.609 335.32,213.734Z" style="fill:rgb(103,205,13);fill-rule:nonzero;"/>
                    </g>
                    <g transform="matrix(2.83097,0,0,2.83097,-555.41,-160.697)">
                        <path d="M324.305,203.766C324.898,203.402 325.801,202.918 327.008,202.305C328.211,201.676 329.543,201.008 331.004,200.289C332.461,199.551 333.973,198.812 335.52,198.059C337.066,197.301 338.488,196.617 339.785,195.969C341.082,195.34 342.18,194.801 343.098,194.332C344.016,193.883 344.555,193.613 344.734,193.523C345.148,193.289 345.402,193.215 345.492,193.27C345.582,193.34 345.582,193.559 345.492,193.918C345.313,194.566 345.133,195.035 344.969,195.359C344.824,195.684 344.699,195.879 344.609,195.969C344.52,196.059 343.996,196.367 343.063,196.871C342.125,197.375 340.957,197.969 339.551,198.668C338.129,199.391 336.617,200.145 334.961,200.973C333.324,201.785 331.738,202.594 330.191,203.387C328.645,204.195 327.258,204.934 326.051,205.617C324.848,206.301 324,206.824 323.496,207.184C323.531,206.645 323.605,206.121 323.695,205.617C323.785,205.203 323.875,204.824 323.965,204.449C324.055,204.086 324.18,203.855 324.305,203.766Z" style="fill:rgb(103,205,13);fill-rule:nonzero;"/>
                    </g>
                    <g transform="matrix(2.83097,0,0,2.83097,-555.41,-160.697)">
                        <path d="M303.73,166.18C302.652,166.504 301.844,166.434 301.32,165.945C300.797,165.461 300.422,164.848 300.223,164.09C300.023,163.355 299.934,162.578 299.953,161.805C299.969,161.031 299.988,160.527 299.988,160.312C300.078,159.539 300.188,159.07 300.328,158.906C300.457,158.746 300.527,158.891 300.527,159.34L300.527,160.238C300.527,160.691 300.602,161.156 300.762,161.609C300.926,162.059 301.195,162.383 301.59,162.598C301.969,162.797 302.578,162.707 303.391,162.293C303.805,162.113 304.109,161.859 304.324,161.535C304.523,161.211 304.668,160.852 304.738,160.437C304.793,160.023 304.828,159.59 304.793,159.105C304.777,158.637 304.793,158.133 304.828,157.629C304.828,157.09 304.867,156.711 304.938,156.477C305.012,156.242 305.082,156.117 305.137,156.062C305.207,156.027 305.262,156.047 305.316,156.137C305.352,156.227 305.387,156.297 305.387,156.332C305.477,156.711 305.551,157.199 305.621,157.809C305.695,158.422 306,158.871 306.539,159.141C306.684,159.23 307.063,159.176 307.676,158.98C308.285,158.766 308.699,158.457 308.934,158.043C309.258,157.504 309.402,156.891 309.402,156.207C309.402,155.523 309.367,154.77 309.277,153.941C309.188,153.453 309.313,153.383 309.691,153.742C310.051,154.281 310.301,155.02 310.465,155.937C310.625,156.836 310.66,157.828 310.57,158.871C310.301,160.562 309.742,161.699 308.934,162.293C308.105,162.887 307.387,163.066 306.738,162.832C306.523,162.797 306.305,162.902 306.125,163.172C305.945,163.445 305.746,163.785 305.551,164.199C305.352,164.613 305.102,165.008 304.828,165.406C304.559,165.785 304.199,166.055 303.73,166.18Z" style="fill:rgb(103,205,13);fill-rule:nonzero;"/>
                    </g>
                    <g transform="matrix(2.83097,0,0,2.83097,-555.41,-160.697)">
                        <path d="M291.691,156.605C292.285,156.242 293.184,155.758 294.391,155.145C295.598,154.516 296.93,153.852 298.387,153.129C299.844,152.391 301.355,151.652 302.902,150.898C304.453,150.141 305.875,149.457 307.172,148.809C308.465,148.18 309.563,147.641 310.48,147.172C311.398,146.723 311.941,146.453 312.121,146.363C312.535,146.129 312.785,146.055 312.875,146.109C312.965,146.184 312.965,146.398 312.875,146.758C312.695,147.406 312.516,147.875 312.355,148.199C312.211,148.523 312.086,148.719 311.992,148.809C311.902,148.898 311.383,149.207 310.445,149.711C309.512,150.215 308.34,150.809 306.938,151.508C305.516,152.23 304.004,152.984 302.348,153.812C300.707,154.625 299.125,155.434 297.574,156.227C296.027,157.035 294.641,157.773 293.438,158.457C292.23,159.141 291.383,159.664 290.879,160.023C290.914,159.484 290.988,158.961 291.078,158.457C291.168,158.043 291.258,157.664 291.348,157.289C291.438,156.926 291.563,156.695 291.691,156.605Z" style="fill:rgb(103,205,13);fill-rule:nonzero;"/>
                    </g>
                    <g transform="matrix(2.83097,0,0,2.83097,-555.41,-160.697)">
                        <path d="M257.148,217.191C257.273,217.012 256.969,216.852 256.211,216.687C255.473,216.527 254.539,216.398 253.457,216.309C252.359,216.219 251.242,216.164 250.109,216.148C248.957,216.113 248.094,216.148 247.5,216.238C246.871,216.328 246.277,216.617 245.734,217.066C245.18,217.516 244.727,217.93 244.367,218.289C244.277,218.289 244.207,218.309 244.152,218.363C244.117,218.398 244.098,218.379 244.098,218.289C244.133,217.84 244.387,217.172 244.816,216.309C245.25,215.445 245.773,214.562 246.422,213.645C247.051,212.727 247.754,211.918 248.508,211.18C249.246,210.461 249.984,210.027 250.723,209.883C250.992,209.848 251.496,209.793 252.215,209.738C252.953,209.703 253.766,209.687 254.645,209.723C255.547,209.738 256.465,209.793 257.418,209.883C258.371,209.973 259.219,210.117 259.937,210.297C260.441,210.477 260.875,210.82 261.215,211.324C261.558,211.828 261.719,212.477 261.719,213.305C261.629,213.809 261.394,214.602 261,215.699C260.621,216.797 259.922,217.91 258.91,219.082C257.922,220.234 256.519,221.277 254.719,222.195C252.918,223.094 250.559,223.652 247.645,223.832C247.141,223.922 246.816,223.922 246.652,223.871C246.492,223.797 246.582,223.652 246.887,223.418C248.039,222.789 249.191,222.16 250.344,221.547C251.516,220.918 252.559,220.34 253.531,219.801C254.484,219.242 255.293,218.758 255.941,218.289C256.609,217.84 257.004,217.48 257.148,217.191Z" style="fill:rgb(103,205,13);fill-rule:nonzero;"/>
                    </g>
                    <g transform="matrix(2.83097,0,0,2.83097,-555.41,-160.697)">
                        <path d="M300.383,142.168C299.035,141.789 298.133,141.051 297.684,139.973C297.234,138.891 297.09,137.668 297.234,136.316C297.395,134.984 297.738,133.582 298.297,132.105C298.871,130.648 299.484,129.316 300.148,128.129C300.836,126.922 301.465,125.949 302.059,125.211C302.672,124.457 303.121,124.113 303.406,124.187C303.57,124.277 303.605,124.328 303.516,124.367C303.445,124.402 303.406,124.492 303.406,124.637C301.609,127.57 300.617,129.926 300.438,131.727C300.258,133.508 300.512,134.824 301.23,135.652C301.934,136.48 302.887,136.875 304.094,136.82C305.281,136.785 306.324,136.406 307.223,135.652C307.676,135.203 307.711,135.344 307.332,136.102C307.117,136.77 306.758,137.504 306.27,138.297C305.785,139.07 305.227,139.793 304.598,140.422C303.949,141.051 303.266,141.574 302.508,141.934C301.77,142.312 301.051,142.383 300.383,142.168Z" style="fill:rgb(103,205,13);fill-rule:nonzero;"/>
                    </g>
                    <g transform="matrix(2.83097,0,0,2.83097,-555.41,-160.697)">
                        <path d="M256.519,201.98C255.652,201.746 255.059,201.262 254.773,200.559C254.465,199.84 254.375,199.047 254.465,198.184C254.574,197.301 254.809,196.383 255.168,195.43C255.547,194.477 255.941,193.613 256.375,192.82C256.824,192.047 257.238,191.414 257.617,190.93C258.012,190.445 258.301,190.211 258.496,190.266C258.605,190.316 258.625,190.355 258.57,190.371C258.515,190.406 258.496,190.461 258.496,190.551C257.328,192.461 256.68,194.008 256.555,195.176C256.445,196.348 256.609,197.195 257.074,197.734C257.543,198.273 258.156,198.527 258.949,198.508C259.722,198.473 260.406,198.219 260.98,197.734C261.289,197.445 261.305,197.535 261.055,198.023C260.91,198.473 260.676,198.941 260.371,199.461C260.047,199.965 259.687,200.434 259.273,200.848C258.859,201.262 258.406,201.586 257.922,201.836C257.418,202.09 256.969,202.125 256.519,201.98Z" style="fill:rgb(103,205,13);fill-rule:nonzero;"/>
                    </g>
                    <g transform="matrix(2.83097,0,0,2.83097,-555.41,-160.697)">
                        <path d="M341.641,240.699C340.777,240.465 340.184,239.98 339.895,239.277C339.59,238.559 339.496,237.766 339.59,236.902C339.695,236.02 339.93,235.102 340.289,234.148C340.668,233.195 341.063,232.328 341.496,231.539C341.945,230.766 342.359,230.133 342.738,229.648C343.133,229.16 343.422,228.926 343.621,228.98C343.727,229.035 343.746,229.07 343.691,229.09C343.637,229.125 343.621,229.18 343.621,229.27C342.449,231.176 341.801,232.727 341.676,233.895C341.566,235.066 341.73,235.91 342.199,236.453C342.664,236.992 343.277,237.242 344.07,237.227C344.844,237.191 345.527,236.937 346.105,236.453C346.41,236.164 346.43,236.254 346.176,236.738C346.031,237.191 345.797,237.656 345.492,238.18C345.168,238.684 344.809,239.152 344.395,239.566C343.98,239.98 343.531,240.305 343.043,240.555C342.539,240.809 342.09,240.844 341.641,240.699Z" style="fill:rgb(103,205,13);fill-rule:nonzero;"/>
                    </g>
                    <g transform="matrix(2.83097,0,0,2.83097,-555.41,-160.697)">
                        <path d="M308.863,199.102C307.996,198.867 307.402,198.383 307.117,197.68C306.809,196.961 306.719,196.168 306.809,195.305C306.918,194.422 307.152,193.504 307.512,192.551C307.891,191.594 308.285,190.73 308.719,189.941C309.168,189.164 309.582,188.535 309.961,188.051C310.355,187.562 310.645,187.328 310.844,187.383C310.949,187.437 310.969,187.473 310.914,187.492C310.859,187.527 310.844,187.582 310.844,187.672C309.672,189.578 309.023,191.129 308.898,192.297C308.789,193.469 308.953,194.312 309.422,194.855C309.887,195.395 310.5,195.645 311.293,195.629C312.066,195.59 312.75,195.34 313.324,194.855C313.633,194.566 313.648,194.656 313.398,195.141C313.254,195.59 313.02,196.059 312.715,196.582C312.391,197.086 312.031,197.555 311.617,197.969C311.203,198.383 310.754,198.707 310.266,198.957C309.762,199.211 309.313,199.246 308.863,199.102Z" style="fill:rgb(103,205,13);fill-rule:nonzero;"/>
                    </g>
                    <g transform="matrix(2.83097,0,0,2.83097,-555.41,-160.697)">
                        <path d="M309.188,248.691C308.32,248.457 307.727,247.973 307.441,247.27C307.133,246.551 307.043,245.758 307.133,244.895C307.242,244.012 307.477,243.094 307.836,242.141C308.215,241.187 308.609,240.32 309.043,239.531C309.492,238.754 309.906,238.125 310.285,237.641C310.68,237.152 310.969,236.918 311.164,236.973C311.273,237.027 311.293,237.062 311.238,237.082C311.184,237.117 311.164,237.172 311.164,237.262C309.996,239.168 309.348,240.719 309.223,241.887C309.113,243.059 309.277,243.902 309.742,244.445C310.211,244.984 310.824,245.234 311.617,245.219C312.391,245.184 313.074,244.93 313.648,244.445C313.957,244.156 313.973,244.246 313.723,244.73C313.578,245.184 313.344,245.648 313.039,246.172C312.715,246.676 312.355,247.145 311.941,247.559C311.527,247.973 311.074,248.297 310.59,248.547C310.086,248.801 309.637,248.836 309.188,248.691Z" style="fill:rgb(103,205,13);fill-rule:nonzero;"/>
                    </g>
                    <g transform="matrix(2.83097,0,0,2.83097,-555.41,-160.697)">
                        <path d="M290.574,227.469C289.711,227.234 289.117,226.75 288.828,226.047C288.523,225.328 288.434,224.535 288.523,223.672C288.629,222.789 288.863,221.871 289.223,220.918C289.602,219.965 289.996,219.102 290.43,218.309C290.879,217.535 291.293,216.902 291.672,216.418C292.066,215.934 292.355,215.699 292.555,215.75C292.66,215.805 292.68,215.84 292.625,215.859C292.57,215.895 292.555,215.949 292.555,216.039C291.383,217.949 290.734,219.496 290.609,220.664C290.504,221.836 290.664,222.684 291.133,223.223C291.602,223.762 292.211,224.016 293.004,223.996C293.777,223.961 294.461,223.707 295.039,223.223C295.344,222.934 295.363,223.023 295.109,223.508C294.965,223.961 294.73,224.426 294.426,224.949C294.102,225.453 293.742,225.922 293.328,226.336C292.914,226.75 292.465,227.074 291.977,227.324C291.473,227.578 291.023,227.613 290.574,227.469Z" style="fill:rgb(103,205,13);fill-rule:nonzero;"/>
                    </g>
                    <g transform="matrix(2.83097,0,0,2.83097,-555.41,-160.697)">
                        <path d="M285.176,231.32C285.91,231.879 286.289,232.527 286.309,233.285C286.324,234.059 286.129,234.832 285.73,235.625C285.316,236.398 284.777,237.172 284.094,237.926C283.41,238.684 282.727,239.352 282.043,239.926C281.34,240.484 280.727,240.934 280.188,241.258C279.648,241.562 279.305,241.672 279.145,241.547C279.07,241.473 279.055,241.437 279.109,241.418C279.16,241.418 279.215,241.367 279.234,241.277C281.016,239.926 282.168,238.719 282.707,237.676C283.23,236.613 283.391,235.77 283.141,235.102C282.906,234.437 282.422,233.969 281.684,233.715C280.945,233.445 280.207,233.445 279.484,233.699C279.109,233.859 279.125,233.77 279.523,233.391C279.828,233.031 280.207,232.672 280.691,232.312C281.16,231.953 281.684,231.645 282.203,231.41C282.742,231.16 283.285,231.016 283.824,230.961C284.363,230.906 284.813,231.035 285.176,231.32Z" style="fill:rgb(103,205,13);fill-rule:nonzero;"/>
                    </g>
                    <g transform="matrix(2.83097,0,0,2.83097,-555.41,-160.697)">
                        <path d="M275.992,172.391C275.293,172.191 274.824,171.812 274.59,171.238C274.355,170.68 274.266,170.031 274.355,169.328C274.43,168.629 274.609,167.906 274.914,167.133C275.203,166.379 275.527,165.676 275.867,165.062C276.227,164.434 276.551,163.93 276.875,163.535C277.184,163.137 277.414,162.977 277.578,163.012C277.648,163.047 277.668,163.082 277.633,163.102C277.598,163.121 277.578,163.156 277.578,163.246C276.641,164.758 276.121,166 276.012,166.937C275.922,167.871 276.066,168.555 276.426,168.988C276.805,169.418 277.289,169.617 277.922,169.602C278.551,169.582 279.09,169.383 279.559,168.988C279.793,168.754 279.809,168.824 279.613,169.223C279.504,169.562 279.324,169.961 279.07,170.355C278.801,170.77 278.516,171.148 278.191,171.473C277.848,171.812 277.488,172.066 277.109,172.266C276.715,172.461 276.336,172.496 275.992,172.391Z" style="fill:rgb(103,205,13);fill-rule:nonzero;"/>
                    </g>
                    <g transform="matrix(2.83097,0,0,2.83097,-555.41,-160.697)">
                        <path d="M334.352,176.223C333.648,176.027 333.18,175.648 332.945,175.07C332.711,174.516 332.621,173.867 332.711,173.164C332.785,172.461 332.965,171.742 333.27,170.969C333.559,170.211 333.883,169.508 334.223,168.898C334.586,168.27 334.906,167.766 335.23,167.367C335.539,166.973 335.773,166.809 335.934,166.844C336.008,166.883 336.023,166.918 335.988,166.937C335.953,166.953 335.934,166.988 335.934,167.078C334.996,168.59 334.477,169.832 334.367,170.77C334.277,171.707 334.422,172.391 334.781,172.82C335.16,173.254 335.645,173.453 336.277,173.434C336.906,173.414 337.445,173.219 337.914,172.82C338.148,172.586 338.164,172.66 337.969,173.055C337.859,173.398 337.68,173.793 337.43,174.191C337.156,174.605 336.871,174.98 336.547,175.305C336.203,175.648 335.844,175.898 335.465,176.098C335.07,176.297 334.691,176.332 334.352,176.223Z" style="fill:rgb(103,205,13);fill-rule:nonzero;"/>
                    </g>
                    <g transform="matrix(2.83097,0,0,2.83097,-555.41,-160.697)">
                        <path d="M324.234,221.297C323.531,221.098 323.063,220.719 322.828,220.145C322.598,219.586 322.508,218.937 322.598,218.234C322.668,217.535 322.848,216.812 323.152,216.039C323.441,215.285 323.766,214.582 324.109,213.969C324.469,213.34 324.793,212.836 325.117,212.441C325.422,212.043 325.656,211.883 325.816,211.918C325.891,211.953 325.906,211.988 325.871,212.008C325.836,212.027 325.816,212.062 325.816,212.152C324.883,213.664 324.359,214.906 324.254,215.84C324.16,216.777 324.305,217.461 324.664,217.895C325.043,218.324 325.531,218.523 326.16,218.504C326.789,218.488 327.328,218.289 327.797,217.895C328.031,217.66 328.051,217.73 327.852,218.129C327.742,218.469 327.563,218.867 327.313,219.262C327.043,219.676 326.754,220.055 326.43,220.379C326.09,220.719 325.727,220.973 325.352,221.168C324.953,221.367 324.574,221.402 324.234,221.297Z" style="fill:rgb(103,205,13);fill-rule:nonzero;"/>
                    </g>
                </g>
            </g>
        </g>
    </g>
</svg>
